<svg id="visual" viewBox="0 0 960 150" width="960" height="150" xmlns="http://www.w3.org/2000/svg" xmlns:xlink="http://www.w3.org/1999/xlink" version="1.1"><path d="M0 123L16 120C32 117 64 111 96 112.2C128 113.3 160 121.7 192 125.3C224 129 256 128 288 124.7C320 121.3 352 115.7 384 116.3C416 117 448 124 480 123.8C512 123.7 544 116.3 576 112.2C608 108 640 107 672 110.8C704 114.7 736 123.3 768 126.7C800 130 832 128 864 124.5C896 121 928 116 944 113.5L960 111L960 151L944 151C928 151 896 151 864 151C832 151 800 151 768 151C736 151 704 151 672 151C640 151 608 151 576 151C544 151 512 151 480 151C448 151 416 151 384 151C352 151 320 151 288 151C256 151 224 151 192 151C160 151 128 151 96 151C64 151 32 151 16 151L0 151Z" fill="#ffa4c2" stroke-linecap="round" stroke-linejoin="miter"></path></svg>