<svg id="visual" viewBox="0 0 960 150" width="960" height="150" xmlns="http://www.w3.org/2000/svg" xmlns:xlink="http://www.w3.org/1999/xlink" version="1.1"><path d="M0 25L16 28C32 31 64 37 96 35.8C128 34.7 160 26.3 192 22.7C224 19 256 20 288 23.3C320 26.7 352 32.3 384 31.7C416 31 448 24 480 24.2C512 24.3 544 31.7 576 35.8C608 40 640 41 672 37.2C704 33.3 736 24.7 768 21.3C800 18 832 20 864 23.5C896 27 928 32 944 34.5L960 37L960 0L944 0C928 0 896 0 864 0C832 0 800 0 768 0C736 0 704 0 672 0C640 0 608 0 576 0C544 0 512 0 480 0C448 0 416 0 384 0C352 0 320 0 288 0C256 0 224 0 192 0C160 0 128 0 96 0C64 0 32 0 16 0L0 0Z" fill="#ffa4c2" stroke-linecap="round" stroke-linejoin="miter"></path></svg>